<?xml version="1.0" encoding="UTF-8"?>
<svg width="315px" height="203px" viewBox="0 0 315 203" version="1.1" xmlns="http://www.w3.org/2000/svg" xmlns:xlink="http://www.w3.org/1999/xlink">
    <!-- Generator: Sketch 50.2 (55047) - http://www.bohemiancoding.com/sketch -->
    <title>Artboard 1</title>
    <desc>Created with Sketch.</desc>
    <defs>
        <polygon id="path-1" points="0.911923749 0.5243 13.3998348 0.5243 13.3998348 10 0.911923749 10"></polygon>
        <polygon id="path-3" points="0.548535346 0.1079 140.611597 0.1079 140.611597 34.9999 0.548535346 34.9999"></polygon>
        <polygon id="path-5" points="0 202.568 314.749801 202.568 314.749801 0 0 0"></polygon>
    </defs>
    <g id="Kensho-6.11-Onboarding-New-Data" stroke="none" stroke-width="1" fill="none" fill-rule="evenodd">
        <g id="Datafeed_empty_P2" transform="translate(-370.000000, -145.000000)">
            <g id="Group" transform="translate(240.000000, 126.000000)">
                <g id="Artboard-1" transform="translate(130.150913, 19.000000)">
                    <path d="M39.4314948,151.062 L33.9871739,151.062 L33.9871739,136.005 L36.8694615,136.005 C38.282583,136.005 39.4314948,137.154 39.4314948,138.566 L39.4314948,151.062 Z M26.4762129,151.062 L32.4849817,151.062 L32.4849817,136.005 L26.4762129,136.005 L26.4762129,151.062 Z M18.9652518,151.062 L24.9730199,151.062 L24.9730199,136.005 L18.9652518,136.005 L18.9652518,151.062 Z M11.4542907,151.062 L17.4630596,151.062 L17.4630596,136.005 L11.4542907,136.005 L11.4542907,151.062 Z M5.44652264,151.062 L5.44652264,138.566 C5.44652264,137.154 6.59543447,136.005 8.008556,136.005 L9.95209849,136.005 L9.95209849,151.062 L5.44652264,151.062 Z M36.8694615,134.504 L8.008556,134.504 C5.76377442,134.504 3.94433042,136.323 3.94433042,138.566 L3.94433042,152.563 L9.95209849,152.563 L11.4542907,152.563 L17.4630596,152.563 L18.9652518,152.563 L24.9740207,152.563 L26.4762129,152.563 L32.4849817,152.563 L33.9871739,152.563 L40.9336871,152.563 L40.9336871,138.566 C40.9336871,136.323 39.1142431,134.504 36.8694615,134.504 Z" id="Fill-1" fill="#09538F"></path>
                    <polygon id="Fill-3" fill="#09538F" points="32.0208133 178.5586 46.2871358 169.5746 32.1078824 160.5026 30.256413 161.9196 42.6922828 169.5746 30.256413 177.2276"></polygon>
                    <path d="M26.9567943,92.1816 L26.44739,90.6386 C26.2592407,90.4526 24.5378745,88.3606 24.5378745,88.3606 C24.5378745,88.3606 24.3176998,87.3116 24.2296299,86.7916 L24.1265481,86.3516 C24.0815123,86.1586 24.1775886,85.9596 24.3567307,85.8746 L24.413776,85.8476 L24.14156,85.1656 C24.0654996,84.9776 24.1445624,84.7646 24.3237045,84.6696 C24.4968419,84.5786 24.7090103,84.6286 24.8251025,84.7856 L25.3485179,85.6946 L25.318494,85.3656 C25.2834662,85.1196 25.3254996,85.0276 25.4726164,84.9426 C25.639749,84.8466 25.8529182,84.9016 25.950996,85.0676 L26.1401461,85.3916 L26.5114408,86.0226 C26.5114408,86.0226 26.4043558,85.8606 26.2202097,85.5136 C26.0360635,85.1666 26.5224496,84.8836 26.7456267,85.2676 C26.9668022,85.6506 27.4802097,86.5806 27.4802097,86.5806 C28.3869293,87.4106 28.622116,88.0916 28.4249595,89.3046 L29.2175886,91.1706 L29.0764766,91.4426 L27.4441811,91.9906 L26.9567943,92.1816 Z" id="Fill-5" fill="#AB845F"></path>
                    <path d="M38.6159476,92.2793 L38.6469722,90.6543 C38.5308801,90.4163 37.5991406,87.8733 37.5991406,87.8733 C37.5991406,87.8733 37.7402526,86.8103 37.8303241,86.2913 L37.8783622,85.8423 C37.8993789,85.6443 38.0555028,85.4883 38.25366,85.4673 L38.3167101,85.4613 L38.2846847,84.7273 C38.2756775,84.5253 38.4207927,84.3493 38.6209515,84.3203 C38.8141048,84.2913 38.9992518,84.4083 39.0562971,84.5943 L39.2484496,85.6263 L39.3285131,85.3053 C39.377552,85.0613 39.4486084,84.9883 39.6157411,84.9573 C39.8048912,84.9213 39.9880365,85.0453 40.0250659,85.2333 L40.0961223,85.6023 L40.2372343,86.3203 C40.2372343,86.3203 40.190197,86.1323 40.1311501,85.7433 C40.0721033,85.3553 40.6255425,85.2493 40.7076076,85.6853 C40.7906736,86.1203 40.9668133,87.1673 40.9668133,87.1673 C41.547274,88.2503 41.5432708,88.9703 40.9548038,90.0503 L41.0849071,92.0733 L40.8617299,92.2833 L39.139363,92.2593 L38.6159476,92.2793 Z" id="Fill-7" fill="#CE9C5F"></path>
                    <polygon id="Fill-9" fill="#09538F" points="38.3501366 129.3262 39.5180635 149.0762 44.1047037 152.2432 35.8481509 152.2432 33.0129007 131.5762"></polygon>
                    <polygon id="Fill-11" fill="#09538F" points="25.4233773 137.4092 22.671193 151.5762 26.6743701 151.5762 31.5112089 138.1592"></polygon>
                    <path d="M35.4117045,110.1357 L33.8554694,106.1047 L29.6561366,106.1587 L33.2850167,102.7317 C34.0015854,102.0547 34.1967403,100.9917 33.7663987,100.1047 L29.342888,90.9927 L26.6507514,91.5467 L29.4219508,100.6457 L23.2340397,105.0797 C22.2342462,105.7957 21.7658745,107.0427 22.0470977,108.2387 L24.6131342,119.1487 C25.0674948,121.0807 25.0654932,123.0917 24.6061287,125.0227 L21.5036664,138.0687 L22.5054615,138.2957 C28.5572645,139.6647 34.8942939,138.9727 40.5067482,136.3277 L39.4679237,126.8127 C38.8434281,121.1017 37.4803463,115.4957 35.4117045,110.1357" id="Fill-13" fill="#FFFFFF"></path>
                    <path d="M27.2280095,104.5991 L25.9549992,104.7081 L25.3815441,105.8261 L25.2834662,105.5401 C25.0843082,104.9641 25.1883908,104.3271 25.5606863,103.8451 L26.0901064,103.1591 L27.2280095,104.5991 Z" id="Fill-15" fill="#E6E6E6"></path>
                    <polygon id="Fill-17" fill="#E6E6E6" points="29.3424877 90.9927 31.3440763 95.0347 27.5910977 96.0757 26.6503511 91.5467"></polygon>
                    <path d="M39.4672232,126.8101 C38.8437284,121.1001 37.4806465,115.4951 35.4120048,110.1361 L35.055722,109.2141 C32.0743558,110.5291 30.8603924,114.1141 32.4316394,116.9671 L34.5683352,120.8501 C34.8635695,121.3861 35.0677315,121.9671 35.1718141,122.5701 L37.7338475,137.4351 C38.6725925,137.1111 39.6023304,136.7541 40.5070485,136.3281 L39.4672232,126.8101 Z" id="Fill-19" fill="#E6E6E6"></path>
                    <path d="M312.812564,202.5679 L1.93683717,202.5679 C0.866988086,202.5679 0.000300238284,201.7019 0.000300238284,200.6329 C0.000300238284,199.5639 0.866988086,198.6979 1.93683717,198.6979 L312.812564,198.6979 C313.882413,198.6979 314.749101,199.5639 314.749101,200.6329 C314.749101,201.7019 313.882413,202.5679 312.812564,202.5679" id="Fill-21" fill="#0063B0"></path>
                    <path d="M148.08753,32.2183 C148.08753,30.1483 146.650389,28.4243 144.721859,27.9573 L144.721859,4.9973 L142.655218,4.9973 L142.655218,27.9573 C140.726688,28.4233 139.289547,30.1483 139.289547,32.2183 C139.289547,34.2883 140.726688,36.0133 142.655218,36.4793 L142.655218,63.5683 L144.721859,63.5683 L144.721859,36.4793 C146.650389,36.0123 148.08753,34.2883 148.08753,32.2183" id="Fill-23" fill="#021760"></path>
                    <path d="M31.3836076,177.9219 L17.8218443,169.5739 L31.3836076,161.2269 L44.9453709,169.5739 L31.3836076,177.9219 Z M48.3100413,168.8189 L33.6794297,159.8129 L38.9726307,156.5549 L37.2882939,154.2489 L30.963274,158.1429 L25.057587,154.5059 L22.9569198,156.6429 L27.9608912,159.6009 L14.4571739,168.0589 L13.615506,170.3299 L28.5443542,179.6689 L20.464942,184.6419 L25.057587,184.6419 L30.8371739,181.0849 L36.3005099,184.6419 L42.3012724,184.6419 L33.6794297,179.3349 L48.3100413,170.3299 L48.3100413,168.8189 Z" id="Fill-25" fill="#021760"></path>
                    <polygon id="Fill-27" fill="#09538F" points="14.4570739 168.8188 36.0762319 155.5108 35.4557395 154.5058 27.9607911 159.1198 23.7944845 156.5548 24.4379952 155.5108 22.804699 154.5058 21.5416966 156.5548 26.8338967 159.8128 12.2042859 168.8188 12.2042859 170.3298 26.8338967 179.3348 18.212054 184.6418 20.4648419 184.6418 27.9607911 180.0278 35.4557395 184.6418 37.7095282 184.6418 14.4570739 170.3298"></polygon>
                    <g id="Group-31" transform="translate(3.002383, 192.568000)">
                        <mask id="mask-2" fill="white">
                            <use xlink:href="#path-1"></use>
                        </mask>
                        <g id="Clip-30"></g>
                        <path d="M8.65807149,0.5243 L5.65368705,0.5243 C3.03560921,0.5243 0.911923749,2.6463 0.911923749,5.2623 C0.911923749,7.8783 3.03560921,10.0003 5.65368705,10.0003 L8.65807149,10.0003 C11.2771501,10.0003 13.3998348,7.8783 13.3998348,5.2623 C13.3998348,2.6463 11.2771501,0.5243 8.65807149,0.5243" id="Fill-29" fill="#021760" mask="url(#mask-2)"></path>
                    </g>
                    <path d="M157.818453,182.335 L180.265268,169.65 L180.265268,195.02 L157.818453,182.335 Z M130.088445,166.665 L154.885125,152.651 L179.681805,166.665 L154.885125,180.677 L130.088445,166.665 Z M128.805427,195.415 L128.805427,169.255 L151.951797,182.335 L128.805427,195.415 Z M102.839819,182.335 L125.706967,169.413 L125.706967,195.257 L102.839819,182.335 Z M75.109811,166.665 L99.9074917,152.651 L124.704172,166.665 L99.9074917,180.677 L75.109811,166.665 Z M73.9669039,195.336 L73.9669039,169.334 L96.9741636,182.335 L73.9669039,195.336 Z M96.9741636,150.994 L73.9669039,163.995 L73.9669039,137.993 L96.9741636,150.994 Z M125.706967,138.072 L125.706967,163.916 L102.839819,150.994 L125.706967,138.072 Z M151.951797,150.994 L128.805427,164.074 L128.805427,137.914 L151.951797,150.994 Z M180.265268,138.309 L180.265268,163.679 L157.818453,150.994 L180.265268,138.309 Z M180.265268,133.478 L180.265268,134.994 L154.885125,149.336 L128.862472,134.631 L128.805427,134.728 L128.805427,133.478 L125.706967,133.478 L125.706967,134.757 L99.9074917,149.336 L73.9669039,134.678 L73.9669039,133.478 L70.8684448,133.478 L70.8684448,198.698 L73.9669039,198.698 L73.9669039,198.651 L99.9074917,183.993 L125.706967,198.572 L125.706967,198.698 L128.805427,198.698 L128.805427,198.601 L128.862472,198.698 L154.885125,183.993 L180.265268,198.335 L180.265268,198.698 L183.364728,198.698 L183.364728,133.478 L180.265268,133.478 Z" id="Fill-32" fill="#09538F"></path>
                    <path d="M126.266011,96.3564 L126.266011,94.0484 L124.675749,94.0484 C124.551651,93.4394 124.431555,92.6984 124.306456,92.0944 L125.777624,91.4844 L124.919943,89.3004 L123.329681,90.0284 C123.085487,89.4194 122.717195,88.9344 122.227806,88.3254 L123.453779,87.1114 L121.863517,85.5314 L120.641547,86.7494 C120.149156,86.3834 119.540674,86.0174 119.052286,85.7744 L119.660769,84.0664 L117.582119,83.2144 L116.972635,84.9144 C116.360149,84.6714 115.627568,84.5524 115.014081,84.5524 L115.014081,82.7294 L112.683231,82.7294 L112.683231,84.5524 C112.069744,84.5524 111.457258,84.6714 110.848775,84.9144 L110.235288,83.2144 L108.036543,84.0664 L108.770125,85.7744 C108.156639,86.0174 107.668251,86.3834 107.179863,86.7494 L105.832794,85.5314 L104.243533,87.1114 L105.469506,88.3254 C105.101214,88.9344 104.731921,89.4194 104.367631,89.9054 L102.777369,89.3004 L101.919689,91.3654 L103.509951,92.0944 C103.265757,92.6984 103.145662,93.4394 103.145662,94.0484 L101.431301,94.0484 L101.431301,96.3564 L103.145662,96.3564 C103.145662,96.9614 103.265757,97.5704 103.390856,98.1794 L101.919689,98.7844 L102.777369,100.8494 L104.243533,100.2444 C104.611825,100.8494 104.980118,101.4664 105.345407,101.9564 L104.243533,103.0464 L105.832794,104.6264 L106.93567,103.5324 C107.548156,104.0174 108.036543,104.3834 108.646027,104.6264 L108.036543,106.0834 L110.115193,106.9344 L110.724677,105.5974 C111.337163,105.7214 112.069744,105.8404 112.683231,105.9634 L112.683231,107.4204 L115.014081,107.4204 L115.014081,105.9634 C115.747663,105.8404 116.360149,105.7214 116.972635,105.5974 L117.582119,106.9344 L119.660769,106.0834 L119.052286,104.7504 C119.660769,104.3834 120.273255,104.0174 120.761643,103.5324 L121.863517,104.6264 L123.453779,103.0464 L122.351905,101.9564 C122.841293,101.4664 123.209585,100.8494 123.453779,100.2444 L124.919943,100.8494 L125.777624,98.7844 L124.306456,98.1794 C124.431555,97.5704 124.551651,96.9614 124.675749,96.3564 L126.266011,96.3564 Z M108.400832,89.7854 C109.626805,88.5714 111.213064,87.7204 112.803326,87.5964 L112.803326,91.6084 C111.581357,91.9704 110.604581,92.9454 110.235288,94.2914 L106.202087,94.2914 C106.322183,92.5794 107.179863,90.9994 108.400832,89.7854 Z M112.803326,102.9274 C111.213064,102.6844 109.626805,101.9564 108.400832,100.7304 C107.179863,99.5124 106.322183,97.9364 106.202087,96.2324 L110.235288,96.2324 C110.604581,97.5704 111.581357,98.5414 112.803326,98.9074 L112.803326,102.9274 Z M112.314939,95.1434 C112.314939,94.2914 113.05953,93.5634 113.91721,93.5634 C114.769887,93.5634 115.382373,94.2914 115.382373,95.1434 C115.382373,95.9904 114.769887,96.5994 113.91721,96.5994 C113.05953,96.5994 112.314939,95.9904 112.314939,95.1434 Z M119.416575,100.7304 C118.194605,101.9564 116.604343,102.6844 114.893986,102.9274 L114.893986,98.9074 C115.503469,98.6644 116.115956,98.4214 116.604343,97.9364 C117.092731,97.4514 117.337925,96.8414 117.582119,96.2324 L121.619323,96.2324 C121.375129,97.9364 120.641547,99.5124 119.416575,100.7304 Z M117.582119,94.2914 C117.216829,92.9454 116.240054,91.9704 114.893986,91.6084 L114.893986,87.5964 C116.604343,87.7204 118.194605,88.5714 119.416575,89.7854 C120.641547,90.9994 121.375129,92.5794 121.619323,94.2914 L117.582119,94.2914 Z" id="Fill-34" fill="#021760"></path>
                    <path d="M110.848575,116.4228 L108.036343,113.6288 L110.480283,110.4688 L106.691276,109.4978 L107.303762,105.4778 L103.390656,106.5728 L101.920489,102.8038 L99.1082573,105.5978 L96.0438253,103.1698 L94.9419508,106.9348 L91.0288451,106.3258 L92.0066211,110.2268 L88.3377093,111.6828 L91.1489404,114.4768 L88.5819031,117.5258 L92.4950087,118.6198 L91.8865258,122.5078 L95.675533,121.5328 L97.1416966,125.3018 L99.9649373,122.3848 L103.146462,124.9358 L104.123237,121.0478 L108.157439,121.7758 L107.059568,117.8918 L110.848575,116.4228 Z M99.596645,116.7848 C97.9983765,116.7848 96.7764067,115.5708 96.7764067,113.9908 C96.7764067,112.5348 97.9983765,111.3208 99.596645,111.3208 C101.067813,111.3208 102.288782,112.5348 102.288782,113.9908 C102.288782,115.5708 101.067813,116.7848 99.596645,116.7848 Z" id="Fill-36" fill="#021760"></path>
                    <path d="M150.131152,113.2627 L147.808308,112.5347 C147.808308,111.3207 147.68421,110.1027 147.314917,108.8807 L149.393566,107.7867 C150.375346,107.3007 150.619539,106.2067 150.131152,105.2357 L149.149373,103.5327 C148.660985,102.6847 147.564114,102.3187 146.706434,102.8037 L144.626783,104.0177 C143.770103,103.0467 142.792327,102.3187 141.683447,101.7097 L142.29193,99.3927 C142.548133,98.4217 142.047736,97.4507 141.06996,97.2037 L139.115409,96.5987 C138.134631,96.3567 137.156855,96.9617 136.792566,97.8127 L136.180079,100.1207 C134.95811,100.1207 133.732137,100.2447 132.511168,100.6067 L131.289198,98.5417 C130.920905,97.6937 129.698936,97.3277 128.841255,97.8127 L127.118888,98.7837 C126.141112,99.2697 125.896918,100.3647 126.385306,101.2157 L127.620286,103.4127 C126.6305,104.1407 125.896918,105.1127 125.288435,106.2067 L122.965592,105.5977 C121.983813,105.3547 121.006037,105.8407 120.761843,106.8157 L120.149357,108.8807 C119.905163,109.7407 120.39355,110.8307 121.37533,111.0777 L123.698173,111.6827 C123.698173,112.8967 123.818268,114.1147 124.187562,115.3277 L122.107911,116.5417 C121.251231,117.0277 120.886942,118.1347 121.37533,118.9817 L122.352105,120.8047 C122.840492,121.6567 123.942367,121.8987 124.796044,121.4137 L126.998793,120.3187 C127.744384,121.1707 128.72116,121.8987 129.823034,122.5077 L129.210548,124.8167 C128.966354,125.7957 129.454742,126.7707 130.431517,127.1327 L132.390071,127.6177 C133.367847,127.8607 134.345624,127.3757 134.713916,126.4047 L135.322399,124.0837 C136.548372,124.0837 137.769341,123.9647 138.991311,123.5977 L140.21328,125.7957 C140.705671,126.6467 141.803542,126.8897 142.668229,126.4047 L144.38359,125.4207 C145.360365,124.9357 145.604559,123.8417 145.116172,122.9937 L144.014297,120.9287 C144.871978,120.0757 145.604559,119.1057 146.217045,118.0107 L148.54089,118.6197 C149.517665,118.8627 150.495441,118.3767 150.739635,117.3937 L151.353122,115.4517 C151.597315,114.4767 151.108928,113.5057 150.131152,113.2627 M134.100429,118.0107 C130.920905,117.0277 128.966354,113.7487 129.943129,110.4697 C130.80081,107.3007 134.224527,105.3547 137.401048,106.3257 C140.581573,107.1777 142.548133,110.5887 141.559349,113.7487 C140.705671,117.0277 137.280953,118.8627 134.100429,118.0107" id="Fill-38" fill="#021760"></path>
                    <path d="M171.292046,108.0293 L171.292046,106.2063 L169.950982,106.2063 C169.825882,105.7213 169.701784,105.2353 169.581689,104.7503 L170.927757,104.1413 L170.195176,102.4423 L168.849107,103.0473 C168.603913,102.5613 168.36072,102.0753 167.991427,101.7093 L168.969203,100.7303 L167.747233,99.3933 L166.645358,100.3643 C166.281069,100.1213 165.792681,99.7593 165.424389,99.5123 L165.912777,98.1793 L164.202419,97.4513 L163.714032,98.7843 C163.221641,98.6643 162.612157,98.5413 162.12377,98.5413 L162.12377,97.0853 L160.289314,97.0853 L160.289314,98.5413 C159.800926,98.5413 159.187439,98.6643 158.699052,98.7843 L158.210664,97.4513 L156.488297,98.1793 L156.976685,99.5123 C156.488297,99.7593 155.998909,100.0023 155.510521,100.3643 L154.653841,99.3933 L153.306772,100.7303 L154.288551,101.7093 C153.920259,102.0753 153.676065,102.5613 153.431871,102.9273 L152.209902,102.4423 L151.472316,104.1413 L152.698289,104.6263 C152.454095,105.1123 152.454095,105.7213 152.329997,106.2063 L151.109028,106.2063 L151.109028,106.8153 L151.109028,108.0293 L152.329997,108.0293 C152.329997,108.6383 152.454095,109.1233 152.574191,109.6173 L151.472316,110.1033 L152.209902,111.8063 L153.306772,111.4403 C153.551967,111.9253 153.920259,112.2923 154.288551,112.7773 L153.306772,113.6293 L154.653841,114.9623 L155.510521,114.1143 C155.998909,114.3573 156.488297,114.7193 156.976685,114.9623 L156.488297,116.0563 L158.210664,116.7843 L158.699052,115.6943 C159.187439,115.8143 159.676828,115.9373 160.289314,115.9373 L160.289314,117.2703 L162.12377,117.2703 L162.12377,115.9373 C162.612157,115.9373 163.221641,115.8143 163.714032,115.5713 L164.202419,116.7843 L165.912777,116.0563 L165.424389,114.8423 C165.912777,114.6003 166.281069,114.3573 166.645358,114.1143 L167.623134,114.9623 L168.969203,113.7483 L167.991427,112.7773 C168.36072,112.2923 168.603913,111.8063 168.969203,111.3213 L170.195176,111.9253 L170.927757,110.2263 L169.581689,109.6173 C169.701784,109.1233 169.825882,108.6383 169.950982,108.0293 L171.292046,108.0293 Z M166.156971,103.4133 C166.769457,104.2643 167.258845,105.2353 167.37894,106.2063 L164.078321,106.2063 C163.958226,106.0833 163.958226,105.8403 163.834127,105.7213 L166.156971,103.4133 Z M164.935001,102.1993 L162.612157,104.5073 C162.488059,104.5073 162.367963,104.3833 162.12377,104.2643 L162.12377,100.9733 C163.221641,101.2163 164.202419,101.5903 164.935001,102.1993 Z M162.12377,108.0293 C161.635382,108.5143 160.777701,108.5143 160.289314,108.0293 C159.800926,107.5443 159.800926,106.8153 160.289314,106.3253 C160.777701,105.8403 161.635382,105.8403 162.12377,106.3253 C162.612157,106.8153 162.612157,107.5443 162.12377,108.0293 Z M160.289314,100.9733 L160.289314,104.2643 C160.04512,104.3833 159.800926,104.3833 159.555732,104.5073 L157.232888,102.1993 C158.086566,101.5903 159.187439,101.0923 160.289314,100.9733 Z M156.119004,103.4133 L158.454858,105.7213 C158.330759,105.8403 158.210664,106.0833 158.210664,106.2063 L154.898035,106.2063 C155.022133,105.2353 155.386423,104.2643 156.119004,103.4133 Z M156.119004,111.0783 C155.386423,110.2263 155.022133,109.1233 154.77794,108.0293 L158.086566,108.0293 C158.210664,108.2723 158.330759,108.5143 158.454858,108.7573 L156.119004,111.0783 Z M157.232888,112.2923 L159.555732,109.9833 C159.800926,110.1033 160.04512,110.1033 160.289314,110.2263 L160.289314,113.5053 C159.187439,113.3863 158.086566,112.8963 157.232888,112.2923 Z M162.12377,113.5053 L162.12377,110.1033 C162.367963,110.1033 162.488059,109.9833 162.612157,109.9833 L164.935001,112.2923 C164.202419,112.8963 163.221641,113.2623 162.12377,113.5053 Z M166.156971,111.0783 L163.834127,108.7573 C163.958226,108.5143 164.078321,108.2723 164.078321,108.0293 L167.37894,108.0293 C167.258845,109.1233 166.890553,110.2263 166.156971,111.0783 Z" id="Fill-40" fill="#021760"></path>
                    <path d="M63.3337649,122.2549 C63.3337649,128.4529 68.3617554,133.4769 74.5646783,133.4769 L182.08301,133.4769 C188.901422,133.4769 194.510874,128.3099 195.206426,121.6809 L63.3627879,121.6809 C63.35278,121.8719 63.3337649,122.0609 63.3337649,122.2549" id="Fill-42" fill="#FFFFFF"></path>
                    <path d="M182.083311,78.3047 C180.480038,78.3047 178.943819,78.5907 177.522691,79.1137 C178.10115,76.6607 178.4164,74.1067 178.4164,71.4777 C178.4164,53.1417 163.539593,38.2767 145.189029,38.2767 C128.076448,38.2767 113.991269,51.2037 112.166821,67.8177 C108.830173,65.4257 104.742929,64.0137 100.323422,64.0137 C89.3246926,64.0137 80.3705862,72.7337 79.9922859,83.6317 C78.3830087,82.7417 76.5335409,82.2347 74.5649786,82.2347 C68.5562097,82.2347 63.6633264,86.9527 63.3630882,92.8827 L195.206726,92.8827 C195.254764,92.4257 195.280785,91.9617 195.280785,91.4917 C195.280785,84.2087 189.372095,78.3047 182.083311,78.3047" id="Fill-44" fill="#FFFFFF"></path>
                    <polygon id="Fill-46" fill="#459BDD" points="275.965921 162.313 275.965921 151.917 283.00851 140.434 272.873466 140.434 266.482394 149.799 266.482394 162.313"></polygon>
                    <polygon id="Fill-48" fill="#021760" points="205.457862 58.5698 200.214701 63.8088 143.534716 7.1738 148.777878 1.9348"></polygon>
                    <polygon id="Fill-50" fill="#09538F" points="205.457862 58.5698 204.293938 59.7318 147.662993 3.1458 148.826917 1.9838"></polygon>
                    <polygon id="Fill-52" fill="#ED8422" points="148.986743 2.144 143.743582 7.383 141.59888 5.239 146.841041 0"></polygon>
                    <polygon id="Fill-54" fill="#021760" points="251.907727 103.603 245.283469 110.222 195.632064 60.61 196.128458 57.246 199.452095 53.892 202.256321 53.991"></polygon>
                    <polygon id="Fill-56" fill="#09538F" points="251.907727 103.603 250.438561 105.072 198.641452 53.316 202.256321 53.991"></polygon>
                    <polygon id="Fill-58" fill="#ED8422" points="202.256521 53.9912 195.632264 60.6102 193.486561 58.4672 200.110818 51.8472"></polygon>
                    <polygon id="Fill-60" fill="#DF6C47" points="277.240832 130.1904 278.072492 126.7574 248.034653 96.7434 238.419021 106.3514 268.456861 136.3654 295.717496 163.6044 303.199434 156.1284"></polygon>
                    <polygon id="Fill-62" fill="#ED8422" points="293.310286 146.2471 245.900659 98.8751 248.034353 96.7441 295.407951 144.0801"></polygon>
                    <polygon id="Fill-64" fill="#021760" points="250.050353 98.7583 240.434721 108.3663 238.290019 106.2223 247.90465 96.6143"></polygon>
                    <path d="M286.214755,161.126 L266.955469,161.126 L266.955469,154.218 C266.955469,151.274 267.967272,148.419 269.820743,146.13 L272.585938,142.717 C273.165398,142.002 274.03709,141.586 274.95682,141.586 L286.214755,141.586 L286.214755,161.126 Z M270.556327,141.319 L268.277519,144.097 C265.584381,147.38 264.113214,151.494 264.113214,155.739 L264.113214,167.676 L297.4857,167.676 L297.4857,139.269 L274.888766,139.269 C273.209433,139.269 271.620172,140.022 270.556327,141.319 Z" id="Fill-66" fill="#ED8422"></path>
                    <path d="M295.408151,152.5688 L284.551535,152.5688 C283.092376,152.5688 281.909438,153.7508 281.909438,155.2088 L281.909438,161.4628 L292.766054,161.4628 L292.766054,155.2088 C292.766054,153.7508 293.948993,152.5688 295.408151,152.5688" id="Fill-68" fill="#09538F"></path>
                    <path d="M295.408151,152.5688 C293.948993,152.5688 292.766054,153.7508 292.766054,155.2088 L292.766054,161.4628 L297.07047,161.4628 L297.07047,152.5688 L295.408151,152.5688 Z" id="Fill-70" fill="#021760"></path>
                    <path d="M209.606154,140.4336 L217.706583,140.4336 L217.706583,163.4016 L202.562564,163.4016 L202.562564,147.4716 C202.562564,143.5846 205.716067,140.4336 209.606154,140.4336" id="Fill-72" fill="#459BDD"></path>
                    <g id="Group-76" transform="translate(174.138205, 167.568000)">
                        <mask id="mask-4" fill="white">
                            <use xlink:href="#path-3"></use>
                        </mask>
                        <g id="Clip-75"></g>
                        <path d="M139.517828,17.7269 L139.437765,17.7269 L139.437765,7.9519 L127.015906,7.9519 L127.015906,0.1079 L102.575509,0.1079 L102.575509,7.9519 L0.548535346,7.9519 L0.548535346,20.9849 L10.8597188,20.9849 C10.5544766,21.9959 10.3893455,23.0689 10.3893455,24.1819 C10.3893455,30.0339 14.9379555,34.7889 20.6154615,34.9819 L20.6154615,34.9919 L20.8196235,34.9919 C20.870664,34.9929 20.9197029,34.9999 20.9707434,34.9999 C21.021784,34.9999 21.0708229,34.9929 21.1208626,34.9919 L25.5143495,34.9919 C25.56539,34.9929 25.6144289,34.9999 25.6654694,34.9999 C27.9522844,34.9999 30.0639603,34.2499 31.7953344,32.9889 C33.5257077,34.2499 35.6373836,34.9999 37.9241986,34.9999 C43.7688372,34.9999 48.5055965,30.1569 48.5055965,24.1819 C48.5055965,23.8289 48.4865814,23.4799 48.454556,23.1359 L88.9506958,23.1359 C88.9186704,23.4799 88.8996553,23.8289 88.8996553,24.1819 C88.8996553,30.0339 93.4472645,34.7889 99.1257712,34.9819 L99.1257712,34.9919 L99.3299333,34.9919 C99.3809738,34.9929 99.4300127,34.9999 99.4810532,34.9999 C99.5310929,34.9999 99.5811326,34.9929 99.6311724,34.9919 L104.024659,34.9919 C104.074699,34.9929 104.124739,34.9999 104.175779,34.9999 C106.462594,34.9999 108.57427,34.2499 110.304643,32.9889 C112.036017,34.2499 114.146693,34.9999 116.434508,34.9999 C122.278146,34.9999 127.015906,30.1569 127.015906,24.1819 C127.015906,23.8289 126.99589,23.4799 126.963865,23.1359 L139.517828,23.1359 C140.064262,23.1359 140.611697,22.5949 140.611697,22.0549 L140.611697,19.3499 C140.611697,18.2679 140.064262,17.7269 139.517828,17.7269" id="Fill-74" fill="#021760" mask="url(#mask-4)"></path>
                    </g>
                    <polygon id="Fill-77" fill="#ED8422" points="241.561616 141.2695 222.781711 140.4335 222.781711 163.4015 241.561616 163.4015"></polygon>
                    <path d="M203.662937,161.7407 L203.662937,146.9297 C203.663938,144.0257 206.020809,141.6717 208.928116,141.6717 L216.346003,141.6717 C214.834804,143.1707 213.89706,145.2467 213.896059,147.5427 L213.887052,161.7407 L203.662937,161.7407 Z M221.764303,141.6727 L238.264399,141.6727 L238.264399,139.2687 L230.177981,139.2687 L222.180634,139.2687 L209.334438,139.2687 C204.760809,139.2687 201.052866,142.9717 201.049863,147.5427 L201.040856,161.6727 C196.848529,162.1957 174.847068,165.7657 173.589069,173.3697 L173.528021,173.3697 L173.528021,183.6497 C173.528021,184.5927 174.292627,185.3567 175.236376,185.3567 L189.474677,185.3567 L189.474677,175.1167 L222.782111,175.1167 L222.782111,161.7407 L216.509133,161.7407 L216.509133,146.9297 C216.510133,144.0287 218.862,141.6787 221.764303,141.6727 Z" id="Fill-79" fill="#ED8422"></path>
                    <path d="M238.092562,161.7407 L218.530037,161.7407 L218.530037,146.9297 C218.530037,144.0267 220.885906,141.6727 223.791212,141.6727 L238.092562,141.6727 L238.092562,161.7407 Z M224.202539,139.2687 C219.627908,139.2687 215.919965,142.9717 215.916963,147.5427 L215.907956,161.6727 C211.592531,162.2107 188.39512,165.9787 188.39512,174.0527 L188.39512,183.7417 C188.39512,184.8187 189.473976,185.3567 189.473976,185.3567 L199.074596,185.3567 C201.380426,180.9697 205.977074,177.9737 211.280283,177.9737 C216.582491,177.9737 221.18014,180.9697 223.48597,185.3567 L241.803508,185.3567 C243.292689,185.3567 244.500648,184.1497 244.500648,182.6607 L244.500648,141.8837 C244.500648,140.4397 243.328718,139.2687 241.883571,139.2687 L224.202539,139.2687 Z" id="Fill-81" fill="#EDAC28"></path>
                    <path d="M183.244832,177.5727 L177.865563,177.5727 C177.514284,177.5727 177.230059,177.2877 177.230059,176.9377 C177.230059,176.5867 177.514284,176.3017 177.865563,176.3017 L183.244832,176.3017 C183.596111,176.3017 183.880337,176.5867 183.880337,176.9377 C183.880337,177.2877 183.596111,177.5727 183.244832,177.5727" id="Fill-83" fill="#DF6C47"></path>
                    <path d="M183.244832,179.8047 L177.865563,179.8047 C177.514284,179.8047 177.230059,179.5197 177.230059,179.1697 C177.230059,178.8187 177.514284,178.5337 177.865563,178.5337 L183.244832,178.5337 C183.596111,178.5337 183.880337,178.8187 183.880337,179.1697 C183.880337,179.5197 183.596111,179.8047 183.244832,179.8047" id="Fill-85" fill="#DF6C47"></path>
                    <path d="M183.244832,182.0366 L177.865563,182.0366 C177.514284,182.0366 177.230059,181.7516 177.230059,181.4016 C177.230059,181.0506 177.514284,180.7656 177.865563,180.7656 L183.244832,180.7656 C183.596111,180.7656 183.880337,181.0506 183.880337,181.4016 C183.880337,181.7516 183.596111,182.0366 183.244832,182.0366" id="Fill-87" fill="#DF6C47"></path>
                    <path d="M176.471457,177.5117 C176.471457,178.1797 175.929026,178.7207 175.261496,178.7207 C174.592966,178.7207 174.050535,178.1797 174.050535,177.5117 C174.050535,176.8437 174.592966,176.3027 175.261496,176.3027 C175.929026,176.3027 176.471457,176.8437 176.471457,177.5117" id="Fill-89" fill="#FFFFFF"></path>
                    <path d="M187.05946,177.5117 C187.05946,178.1797 186.517029,178.7207 185.8495,178.7207 C185.180969,178.7207 184.639539,178.1797 184.639539,177.5117 C184.639539,176.8437 185.180969,176.3027 185.8495,176.3027 C186.517029,176.3027 187.05946,176.8437 187.05946,177.5117" id="Fill-91" fill="#FFFFFF"></path>
                    <path d="M201.481506,191.7495 C201.481506,185.7745 206.218265,180.9305 212.062904,180.9305 L207.367177,180.9305 C201.523539,180.9305 196.78678,185.7745 196.78678,191.7495 C196.78678,197.6025 201.33539,202.3565 207.012896,202.5495 L207.012896,202.5605 L207.217058,202.5605 C207.268098,202.5615 207.317137,202.5675 207.367177,202.5675 C207.418218,202.5675 207.467257,202.5615 207.518297,202.5605 L211.910783,202.5605 C206.138202,202.4765 201.481506,197.6725 201.481506,191.7495" id="Fill-93" fill="#09538F"></path>
                    <path d="M206.418524,191.7495 C206.418524,188.5615 208.94553,185.9785 212.063004,185.9785 C215.179477,185.9785 217.706483,188.5615 217.706483,191.7495 C217.706483,194.9365 215.179477,197.5205 212.063004,197.5205 C208.94553,197.5205 206.418524,194.9365 206.418524,191.7495" id="Fill-95" fill="#09538F"></path>
                    <path d="M187.164944,191.1592 L187.164944,188.4542 C187.164944,187.3732 187.711377,186.8322 188.258812,186.8322 L173.587168,186.8322 C173.039733,186.8322 172.493299,187.3732 172.493299,188.4542 L172.493299,191.1592 C172.493299,191.7002 173.039733,192.2412 173.587168,192.2412 L188.258812,192.2412 C187.711377,192.2412 187.164944,191.7002 187.164944,191.1592" id="Fill-97" fill="#09538F"></path>
                    <path d="M279.991616,191.7495 C279.991616,185.7745 284.728375,180.9305 290.573014,180.9305 L285.877287,180.9305 C280.033649,180.9305 275.29689,185.7745 275.29689,191.7495 C275.29689,197.6025 279.844499,202.3565 285.522005,202.5495 L285.522005,202.5605 L285.727168,202.5605 C285.777207,202.5615 285.827247,202.5675 285.877287,202.5675 C285.928327,202.5675 285.977366,202.5615 286.028407,202.5605 L290.420893,202.5605 C284.648311,202.4765 279.991616,197.6725 279.991616,191.7495" id="Fill-99" fill="#09538F"></path>
                    <path d="M284.928634,191.7495 C284.928634,188.5615 287.455639,185.9785 290.573114,185.9785 C293.689587,185.9785 296.216593,188.5615 296.216593,191.7495 C296.216593,194.9365 293.689587,197.5205 290.573114,197.5205 C287.455639,197.5205 284.928634,194.9365 284.928634,191.7495" id="Fill-101" fill="#09538F"></path>
                    <mask id="mask-6" fill="white">
                        <use xlink:href="#path-5"></use>
                    </mask>
                    <g id="Clip-104"></g>
                    <polygon id="Fill-103" fill="#ED8422" mask="url(#mask-6)" points="231.123431 166.822 237.644607 166.822 237.644607 164.607 231.123431 164.607"></polygon>
                    <path d="M233.765428,152.8457 L222.907811,152.8457 C221.449654,152.8457 220.266715,154.0277 220.266715,155.4857 L220.266715,161.7397 L231.123331,161.7397 L231.123331,155.4857 C231.123331,154.0277 232.30627,152.8457 233.765428,152.8457" id="Fill-105" fill="#09538F" mask="url(#mask-6)"></path>
                    <path d="M233.765428,152.8457 C232.30627,152.8457 231.123331,154.0277 231.123331,155.4857 L231.123331,161.7397 L235.427747,161.7397 L235.427747,152.8457 L233.765428,152.8457 Z" id="Fill-106" fill="#021760" mask="url(#mask-6)"></path>
                    <path d="M296.829679,161.126 L277.672475,161.126 L277.672475,154.616 C277.672475,151.851 278.628234,149.17 280.377622,147.028 L283.782324,142.858 C284.361784,142.149 285.229473,141.738 286.1462,141.738 L296.829679,141.738 L296.829679,161.126 Z M281.617606,141.189 L279.232713,144.097 C276.539576,147.38 275.068408,151.494 275.068408,155.739 L275.068408,167.676 L312.653237,167.676 L312.653237,143.601 C312.653237,141.209 310.712697,139.269 308.317797,139.269 L285.674826,139.269 C284.103579,139.269 282.614397,139.974 281.617606,141.189 Z" id="Fill-107" fill="#EDAC28" mask="url(#mask-6)"></path>
                    <polygon id="Fill-108" fill="#EDAC28" mask="url(#mask-6)" points="16.5781573 193.092 53.5675139 193.092 53.5675139 183.931 16.5781573 183.931"></polygon>
                    <polygon id="Fill-109" fill="#ED8422" mask="url(#mask-6)" points="3.91510723 193.092 16.5781573 193.092 16.5781573 183.931 3.91510723 183.931"></polygon>
                    <polygon id="Fill-110" fill="#EDAC28" mask="url(#mask-6)" points="16.5781573 157.144 53.5675139 157.144 53.5675139 152.563 16.5781573 152.563"></polygon>
                    <polygon id="Fill-111" fill="#ED8422" mask="url(#mask-6)" points="3.91510723 157.144 16.5781573 157.144 16.5781573 152.563 3.91510723 152.563"></polygon>
                    <path d="M22.3056029,197.8301 C22.3056029,196.3531 21.6290659,195.0341 20.568224,194.1651 L20.568224,193.0921 L17.5638396,193.0921 C14.9457617,193.0921 12.8220763,195.2131 12.8220763,197.8301 C12.8220763,200.4471 14.9457617,202.5681 17.5638396,202.5681 L20.568224,202.5681 L20.568224,201.4951 C21.6290659,200.6261 22.3056029,199.3071 22.3056029,197.8301" id="Fill-112" fill="#09538F" mask="url(#mask-6)"></path>
                    <path d="M25.3099873,197.8301 C25.3099873,195.2131 23.1873026,193.0921 20.568224,193.0921 C17.9501461,193.0921 15.8264607,195.2131 15.8264607,197.8301 C15.8264607,200.4471 17.9501461,202.5681 20.568224,202.5681 C23.1873026,202.5681 25.3099873,200.4471 25.3099873,197.8301" id="Fill-113" fill="#021760" mask="url(#mask-6)"></path>
                    <path d="M22.4390087,197.8301 C22.4390087,196.7981 21.6013439,195.9611 20.5685242,195.9611 C19.5347037,195.9611 18.6980397,196.7981 18.6980397,197.8301 C18.6980397,198.8631 19.5347037,199.6991 20.5685242,199.6991 C21.6013439,199.6991 22.4390087,198.8631 22.4390087,197.8301" id="Fill-114" fill="#09538F" mask="url(#mask-6)"></path>
                    <path d="M44.6597442,197.8301 C44.6597442,195.2141 42.5370596,193.0921 39.9179809,193.0921 L36.9135965,193.0921 C34.2955187,193.0921 32.1718332,195.2141 32.1718332,197.8301 C32.1718332,200.4471 34.2955187,202.5681 36.9135965,202.5681 L39.9179809,202.5681 C42.5370596,202.5681 44.6597442,200.4471 44.6597442,197.8301" id="Fill-115" fill="#021760" mask="url(#mask-6)"></path>
                    <path d="M50.5634297,197.8301 C50.5634297,196.3531 49.8868928,195.0341 48.8260508,194.1651 L48.8260508,193.0921 L45.8216664,193.0921 C43.2035886,193.0921 41.0799031,195.2131 41.0799031,197.8301 C41.0799031,200.4471 43.2035886,202.5681 45.8216664,202.5681 L48.8260508,202.5681 L48.8260508,201.4951 C49.8868928,200.6261 50.5634297,199.3071 50.5634297,197.8301" id="Fill-116" fill="#09538F" mask="url(#mask-6)"></path>
                    <path d="M53.5672137,197.8301 C53.5672137,195.2131 51.444529,193.0921 48.8254504,193.0921 C46.2073725,193.0921 44.0836871,195.2131 44.0836871,197.8301 C44.0836871,200.4471 46.2073725,202.5681 48.8254504,202.5681 C51.444529,202.5681 53.5672137,200.4471 53.5672137,197.8301" id="Fill-117" fill="#021760" mask="url(#mask-6)"></path>
                    <path d="M50.6968356,197.8301 C50.6968356,196.7981 49.8591708,195.9611 48.8253503,195.9611 C47.7925306,195.9611 46.9548658,196.7981 46.9548658,197.8301 C46.9548658,198.8631 47.7925306,199.6991 48.8253503,199.6991 C49.8591708,199.6991 50.6968356,198.8631 50.6968356,197.8301" id="Fill-118" fill="#09538F" mask="url(#mask-6)"></path>
                    <path d="M52.0655218,151.062 L46.6202002,151.062 L46.6202002,136.005 L49.5024877,136.005 C50.9156092,136.005 52.0655218,137.154 52.0655218,138.566 L52.0655218,151.062 Z M39.1092391,151.062 L45.1180079,151.062 L45.1180079,136.005 L39.1092391,136.005 L39.1092391,151.062 Z M31.5992788,151.062 L37.6070469,151.062 L37.6070469,136.005 L31.5992788,136.005 L31.5992788,151.062 Z M24.0883177,151.062 L30.0970866,151.062 L30.0970866,136.005 L24.0883177,136.005 L24.0883177,151.062 Z M18.0805496,151.062 L18.0805496,138.566 C18.0805496,137.154 19.2294615,136.005 20.642583,136.005 L22.5861255,136.005 L22.5861255,151.062 L18.0805496,151.062 Z M49.5024877,134.504 L20.642583,134.504 C18.3978014,134.504 16.5783574,136.323 16.5783574,138.566 L16.5783574,152.563 L22.5861255,152.563 L24.0883177,152.563 L30.0970866,152.563 L31.5992788,152.563 L37.6070469,152.563 L39.1092391,152.563 L45.1180079,152.563 L46.6202002,152.563 L53.5667133,152.563 L53.5667133,138.566 C53.5667133,136.323 51.7482701,134.504 49.5024877,134.504 Z" id="Fill-119" fill="#021760" mask="url(#mask-6)"></path>
                    <path d="M35.4048991,100.5254 L34.7743987,99.9154 C34.5372105,99.6854 34.4041048,99.3694 34.4041048,99.0394 L34.4041048,98.9954 C34.4041048,96.6454 32.695749,94.5364 30.355892,94.2994 C27.6697601,94.0284 25.3829452,96.1514 25.3829452,98.7834 L25.3829452,100.8854 C25.3829452,103.3644 27.4135568,105.3924 29.893525,105.3924 L31.4817855,105.3924 C33.0890612,105.3924 34.4041048,104.0784 34.4041048,102.4734 L34.4041048,101.5554 L34.9875679,101.5554 C35.526996,101.5554 35.7922065,100.9004 35.4048991,100.5254" id="Fill-120" fill="#CE9C5F" mask="url(#mask-6)"></path>
                    <path d="M32.8002319,99.6074 C32.8002319,99.8914 33.0304146,100.1214 33.3146402,100.1214 C33.5988658,100.1214 33.8300492,99.8914 33.8300492,99.6074 C33.8300492,99.3234 33.5988658,99.0934 33.3146402,99.0934 C33.0304146,99.0934 32.8002319,99.3234 32.8002319,99.6074" id="Fill-121" fill="#665042" mask="url(#mask-6)"></path>
                    <path d="M32.4079206,105.4512 L31.1038856,104.8172 C30.4433614,104.4962 29.7067768,104.3652 28.976197,104.4382 L26.3411056,104.7012 L26.2780556,106.7952 L31.345077,106.7952 L32.4079206,105.4512 Z" id="Fill-122" fill="#FFFFFF" mask="url(#mask-6)"></path>
                    <path d="M33.3451644,94.0732 L31.4066259,92.7632 L31.4066259,93.7952 L28.7485163,93.2952 L28.9987149,93.9202 C28.9987149,93.9202 24.6302478,94.4092 24.6302478,99.4362 L24.6512645,100.6802 C24.6772851,102.2042 25.8622256,103.6452 27.0781906,104.5652 L27.2163002,104.6702 L29.4570786,102.7692 C29.9764909,102.3292 30.5029087,101.7962 30.8792073,101.2012 L30.7120747,101.2012 C29.9734885,101.2012 29.3740127,100.6022 29.3740127,99.8642 L29.3740127,99.4512 C29.3740127,98.9852 29.7523129,98.6072 30.2186831,98.6072 C30.6850532,98.6072 31.0633535,98.9852 31.0633535,99.4512 L31.0633535,100.8852 C31.2665147,100.4902 31.3986195,100.0732 31.4066259,99.6382 L31.4326465,98.2982 L30.4438618,97.6612 C30.1035917,97.3122 30.1336156,96.7472 30.5089134,96.4362 L30.8011454,96.1942 C30.9872931,96.0402 31.2314869,95.9742 31.4706767,96.0132 L33.7214631,96.3882 L33.7695012,96.3192 C34.2769039,95.5832 34.086753,94.5742 33.3451644,94.0732" id="Fill-123" fill="#000000" mask="url(#mask-6)"></path>
                    <path d="M32.2431898,98.9492 C32.1751358,98.9492 32.106081,98.9212 32.0570421,98.8662 C31.964969,98.7632 31.9729754,98.6052 32.0760572,98.5132 C32.5714504,98.0692 33.2569944,97.8742 33.9115139,97.9952 C34.0486227,98.0202 34.1386942,98.1512 34.1136743,98.2862 C34.0876537,98.4222 33.9535473,98.5062 33.8224432,98.4882 C33.3140397,98.3942 32.7906243,98.5442 32.4103225,98.8852 C32.3622844,98.9282 32.3032375,98.9492 32.2431898,98.9492" id="Fill-124" fill="#000000" mask="url(#mask-6)"></path>
                    <path d="M34.4090087,101.9907 L33.2550929,101.9907 C33.2550929,101.9907 33.4722653,102.5617 33.9266259,102.5617 C34.3799857,102.5617 34.4040048,102.5547 34.4040048,102.5547 L34.4090087,101.9907 Z" id="Fill-125" fill="#AB845F" mask="url(#mask-6)"></path>
                    <path d="M32.0951724,105.3262 L30.194664,106.0792 C29.7192867,106.2682 29.2018761,106.3262 28.696475,106.2452 L26.8410024,105.9512 L28.9756966,104.4382 C28.9756966,104.4382 29.9684845,103.9932 32.0951724,105.3262" id="Fill-126" fill="#E6E6E6" mask="url(#mask-6)"></path>
                    <path d="M42.5986084,102.3198 L41.5367657,91.3088 L38.4483145,91.8628 L38.1320635,102.3068 L33.7976235,104.5118 L33.5184019,104.3108 L32.9399428,104.9038 L32.4705703,104.6388 L30.7812295,105.9038 L30.8612931,106.0058 L29.4211501,106.7368 L33.6975441,110.0608 L40.9873296,105.5638 C42.0992121,104.8778 42.7237077,103.6198 42.5986084,102.3198" id="Fill-127" fill="#FFFFFF" mask="url(#mask-6)"></path>
                    <polygon id="Fill-128" fill="#E6E6E6" mask="url(#mask-6)" points="38.1316632 102.3066 39.5177633 101.6596 38.1837045 99.9516"></polygon>
                    <path d="M41.0607879,92.3887 C41.0607879,92.6067 40.8836473,92.7847 40.6644734,92.7847 C40.4463002,92.7847 40.2681589,92.6067 40.2681589,92.3887 C40.2681589,92.1697 40.4463002,91.9927 40.6644734,91.9927 C40.8836473,91.9927 41.0607879,92.1697 41.0607879,92.3887" id="Fill-129" fill="#E6E6E6" mask="url(#mask-6)"></path>
                    <path d="M34.7641906,108.7842 L35.5147863,105.6592 C35.5147863,105.6592 33.4301319,106.3262 34.7641906,108.7842" id="Fill-130" fill="#E6E6E6" mask="url(#mask-6)"></path>
                </g>
            </g>
        </g>
    </g>
</svg>