<?xml version="1.0" encoding="UTF-8"?>
<svg width="22px" height="27px" viewBox="0 0 22 27" version="1.1" xmlns="http://www.w3.org/2000/svg" xmlns:xlink="http://www.w3.org/1999/xlink">
    <!-- Generator: Sketch 49.3 (51167) - http://www.bohemiancoding.com/sketch -->
    <title>Logo</title>
    <desc>Created with Sketch.</desc>
    <defs></defs>
    <g id="Symbols" stroke="none" stroke-width="1" fill="none" fill-rule="evenodd">
        <g id="PriNav-fold---dashboard" transform="translate(-12.000000, -17.000000)">
            <g id="Logo" transform="translate(12.000000, 17.000000)">
                <g id="Group-2">
                    <polygon id="Path-7-Copy-2" fill="#FFFFFF" points="2.27373675e-13 8.77075455 4.20768305 4.53318345 5.56325931 5.12576839 11.2280142 -5.68434189e-14 13.7053286 2.62591469 14.6507493 2.31341516 21.0586735 8.77075455 14.8532106 9.97715244 8.42331188 8.32171342 9.13760229 7.27625792 4.09783169 10.2513273"></polygon>
                    <polygon id="Path-8-Copy-2" fill="#FFFFFF" points="0 10.016005 1.21938666 17.6970731 4.3358373 20.5573641 6.8387296 24.7681799 13.1793394 27 17.0873177 20.0457157 19.8410473 16.4870892 21.0586735 10.016005 14.8679427 11.0956646 7.77178504 9.36734694 4.3358373 11.3103527"></polygon>
                    <polygon id="Path-27" fill="#0078D7" opacity="0.4" points="4.33334069 20.5590628 1.21620131 17.6968868 0.00471389297 10.0298272 4.34699607 11.2986414 7.77250383 9.3741309 9.01122322 12.6599531 8.60379834 17.0811575 10.6836994 20.5371722 11.756312 19.7762798 12.8029944 22.7772581 13.1736285 26.9959904 9.58185959 25.7331337 6.84038085 24.7692369"></polygon>
                    <polygon id="Path-28" fill="#0078D7" opacity="0.4" points="11.2291758 0 6.62731187 6.63827276 7.46693049 8.26397148 4.10113604 10.2509643 0 8.76730537 4.2166658 4.53238611 4.8540163 6.63827276 5.56509937 5.12208092"></polygon>
                </g>
            </g>
        </g>
    </g>
</svg>