<?xml version="1.0" encoding="UTF-8"?>
<svg width="87px" height="22px" viewBox="0 0 87 22" version="1.1" xmlns="http://www.w3.org/2000/svg" xmlns:xlink="http://www.w3.org/1999/xlink">
    <!-- Generator: Sketch 49.3 (51167) - http://www.bohemiancoding.com/sketch -->
    <title>KENSHO Copy 3</title>
    <desc>Created with Sketch.</desc>
    <defs></defs>
    <g id="Symbols" stroke="none" stroke-width="1" fill="none" fill-rule="evenodd">
        <g id="PriNav-expand---metrics" transform="translate(-50.000000, -19.000000)" fill="#FFFFFF">
            <path d="M50.25,39.7986645 L50.25,24.2840908 L53.2906649,24.2840908 L53.2906649,31.8107556 L59.1049093,24.2840908 L61.7346736,24.2840908 L56.4648725,31.2446833 L63.0084656,39.7986645 L59.0535467,39.7986645 L53.2906649,32.1671715 L53.2906649,39.7986645 L50.25,39.7986645 Z M65.1862391,39.7986645 L65.1862391,24.2840908 L74.688317,24.2840908 L74.688317,26.4121032 L68.3501742,26.4121032 L68.3501742,30.7415079 L73.5480676,30.7415079 L73.5480676,32.8171063 L68.3501742,32.8171063 L68.3501742,37.5972723 L75.1711253,37.5972723 L75.1711253,39.7986645 L65.1862391,39.7986645 Z M77.8214345,39.7986645 L77.8214345,24.2840908 L80.6052865,24.2840908 L87.6522329,34.8822219 L87.6522329,24.2840908 L90.1895445,24.2840908 L90.1895445,39.7986645 L87.3543299,39.7986645 L80.3587461,29.2005334 L80.3587461,39.7986645 L77.8214345,39.7986645 Z M93.1377568,39.6623878 L93.1377568,36.9997515 C94.7745193,37.6986097 96.1749917,38.0480335 97.3392161,38.0480335 C98.1541731,38.0480335 98.796199,37.8628389 99.2653129,37.4924441 C99.7344269,37.1220492 99.9689803,36.6188789 99.9689803,35.982918 C99.9689803,35.4797401 99.8217424,35.0551901 99.5272621,34.7092553 C99.2327818,34.3633205 98.6746473,33.9527475 97.8528419,33.477524 L96.8358627,32.9009689 C95.4730354,32.1182477 94.5108526,31.3687336 93.9492856,30.652404 C93.3877185,29.9360743 93.1069392,29.0992042 93.1069392,28.1417685 C93.1069392,26.8628581 93.5674858,25.835552 94.4885927,25.0598194 C95.4096996,24.2840869 96.6269807,23.8962264 98.1404724,23.8962264 C99.3526354,23.8962264 100.718866,24.0744326 102.239206,24.4308502 L102.239206,26.9152786 C100.684625,26.3212492 99.455359,26.0242389 98.551373,26.0242389 C97.8528384,26.0242389 97.2929918,26.1832267 96.8718166,26.5012072 C96.4506413,26.8191877 96.2400568,27.2367492 96.2400568,27.7539042 C96.2400568,28.1802077 96.3872947,28.5540912 96.681775,28.875566 C96.9762553,29.1970407 97.5309656,29.5918897 98.3459227,30.0601246 L99.4348094,30.678611 C100.900362,31.5172408 101.910483,32.2894675 102.465202,32.9953142 C103.019921,33.701161 103.297276,34.5607436 103.297276,35.574088 C103.297276,37.0137358 102.773383,38.1423748 101.725581,38.9600389 C100.677779,39.7777029 99.2327925,40.1865288 97.3905786,40.1865288 C96.1715672,40.1865288 94.7539741,40.0118169 93.1377568,39.6623878 Z M106.00922,39.7986645 L106.00922,24.2840908 L109.173155,24.2840908 L109.173155,30.5842656 L115.459935,30.5842656 L115.459935,24.2840908 L118.62387,24.2840908 L118.62387,39.7986645 L115.459935,39.7986645 L115.459935,32.7227609 L109.173155,32.7227609 L109.173155,39.7986645 L106.00922,39.7986645 Z M129.111935,40.1865288 C126.804031,40.1865288 124.958421,39.4457503 123.575048,37.964171 C122.191676,36.4825917 121.5,34.5083469 121.5,32.0413776 C121.5,29.546454 122.1951,27.5652208 123.585321,26.0976186 C124.975542,24.6300165 126.851969,23.8962264 129.21466,23.8962264 C131.563654,23.8962264 133.434945,24.6300165 134.82859,26.0976186 C136.222235,27.5652208 136.919047,29.5359712 136.919047,32.0099292 C136.919047,34.5397957 136.222235,36.5350059 134.82859,37.9956194 C133.434945,39.456233 131.529412,40.1865288 129.111935,40.1865288 Z M124.75,19.8207547 L133.5,19.8207547 L133.5,21.6037736 L124.75,21.6037736 L124.75,19.8207547 Z M129.132655,38.0480335 C130.488634,38.0480335 131.562101,37.5046795 132.353089,36.417955 C133.144077,35.3312306 133.539565,33.8584091 133.539565,31.9994463 C133.539565,30.1963923 133.142365,28.7497776 132.347953,27.6595588 C131.553541,26.5693401 130.50233,26.0242389 129.19429,26.0242389 C127.872553,26.0242389 126.816206,26.5693401 126.025219,27.6595588 C125.234231,28.7497776 124.838743,30.206875 124.838743,32.0308948 C124.838743,33.8409374 125.232519,35.2962878 126.020082,36.3969894 C126.807646,37.497691 127.84516,38.0480335 129.132655,38.0480335 Z" id="KENSHO-Copy-3"></path>
        </g>
    </g>
</svg>