<?xml version="1.0" encoding="UTF-8"?>
<svg width="48px" height="48px" viewBox="0 0 48 48" version="1.1" xmlns="http://www.w3.org/2000/svg" xmlns:xlink="http://www.w3.org/1999/xlink">
    <!-- Generator: Sketch 52.5 (67469) - http://www.bohemiancoding.com/sketch -->
    <title>Group 2</title>
    <desc>Created with Sketch.</desc>
    <g id="Landing-page" stroke="none" stroke-width="1" fill="none" fill-rule="evenodd">
        <g id="Landing_Page_P3_1920" transform="translate(-1204.000000, -3472.000000)">
            <g id="Group-2" transform="translate(1204.000000, 3472.000000)">
                <path d="M24,3 C25.9375097,3 27.8007723,3.2499975 29.5898438,3.75 C31.3789152,4.2500025 33.0507735,4.95702668 34.6054688,5.87109375 C36.160164,6.78516082 37.5742124,7.87889988 38.8476562,9.15234375 C40.1211001,10.4257876 41.2148392,11.839836 42.1289062,13.3945312 C43.0429733,14.9492265 43.7499975,16.6210848 44.25,18.4101562 C44.7500025,20.1992277 45,22.0624903 45,24 C45,25.9375097 44.7500025,27.8007723 44.25,29.5898438 C43.7499975,31.3789152 43.0429733,33.0507735 42.1289062,34.6054688 C41.2148392,36.160164 40.1211001,37.5742124 38.8476562,38.8476562 C37.5742124,40.1211001 36.160164,41.2148392 34.6054688,42.1289062 C33.0507735,43.0429733 31.3789152,43.7499975 29.5898438,44.25 C27.8007723,44.7500025 25.9375097,45 24,45 C22.0624903,45 20.1992277,44.7500025 18.4101562,44.25 C16.6210848,43.7499975 14.9492265,43.0429733 13.3945312,42.1289062 C11.839836,41.2148392 10.4257876,40.1211001 9.15234375,38.8476562 C7.87889988,37.5742124 6.78516082,36.160164 5.87109375,34.6054688 C4.95702668,33.0507735 4.2500025,31.3789152 3.75,29.5898438 C3.2499975,27.8007723 3,25.9375097 3,24 C3,22.0624903 3.2499975,20.1992277 3.75,18.4101562 C4.2500025,16.6210848 4.95702668,14.9492265 5.87109375,13.3945312 C6.78516082,11.839836 7.87889988,10.4257876 9.15234375,9.15234375 C10.4257876,7.87889988 11.839836,6.78516082 13.3945312,5.87109375 C14.9492265,4.95702668 16.6210848,4.2500025 18.4101562,3.75 C20.1992277,3.2499975 22.0624903,3 24,3 Z M24,40.8984375 C25.5468827,40.8984375 27.0429615,40.6953145 28.4882812,40.2890625 C29.933601,39.8828105 31.2812437,39.3164099 32.53125,38.5898438 C33.7812562,37.8632776 34.9218698,36.9843802 35.953125,35.953125 C36.9843802,34.9218698 37.8632776,33.7812562 38.5898438,32.53125 C39.3164099,31.2812438 39.8828105,29.9375072 40.2890625,28.5 C40.6953145,27.0624928 40.8984375,25.5625078 40.8984375,24 C40.8984375,22.4531173 40.6953145,20.9570385 40.2890625,19.5117188 C39.8828105,18.066399 39.3164099,16.7187563 38.5898438,15.46875 C37.8632776,14.2187438 36.9843802,13.0781302 35.953125,12.046875 C34.9218698,11.0156198 33.7812562,10.1367224 32.53125,9.41015625 C31.2812437,8.68359012 29.933601,8.11718953 28.4882812,7.7109375 C27.0429615,7.30468547 25.5468827,7.1015625 24,7.1015625 C22.4531173,7.1015625 20.9570385,7.30468547 19.5117188,7.7109375 C18.066399,8.11718953 16.7187562,8.68359012 15.46875,9.41015625 C14.2187437,10.1367224 13.0781302,11.0156198 12.046875,12.046875 C11.0156198,13.0781302 10.1367224,14.2187438 9.41015625,15.46875 C8.68359012,16.7187563 8.11718953,18.066399 7.7109375,19.5117188 C7.30468547,20.9570385 7.1015625,22.4531173 7.1015625,24 C7.1015625,25.5468827 7.30468547,27.0429615 7.7109375,28.4882812 C8.11718953,29.933601 8.68359012,31.2812438 9.41015625,32.53125 C10.1367224,33.7812562 11.0156198,34.9218698 12.046875,35.953125 C13.0781302,36.9843802 14.2187437,37.8632776 15.46875,38.5898438 C16.7187562,39.3164099 18.0624928,39.8828105 19.5,40.2890625 C20.9375072,40.6953145 22.4374922,40.8984375 24,40.8984375 Z" id="" fill="#B0B0B0"></path>
                <path d="M24,0 C26.203136,0 28.3281148,0.285153398 30.375,0.85546875 C32.4218852,1.4257841 34.3320224,2.23436977 36.1054688,3.28125 C37.8789151,4.32813023 39.4960864,5.58202395 40.9570312,7.04296875 C42.4179761,8.50391355 43.6718698,10.1210849 44.71875,11.8945312 C45.7656302,13.6679776 46.5742159,15.5781148 47.1445312,17.625 C47.7148466,19.6718852 48,21.796864 48,24 C48,26.203136 47.7148466,28.3281148 47.1445312,30.375 C46.5742159,32.4218852 45.7656302,34.3320224 44.71875,36.1054688 C43.6718698,37.8789151 42.4179761,39.4960864 40.9570312,40.9570312 C39.4960864,42.4179761 37.8789151,43.6718698 36.1054688,44.71875 C34.3320224,45.7656302 32.4218852,46.5742159 30.375,47.1445312 C28.3281148,47.7148466 26.203136,48 24,48 C21.796864,48 19.6718852,47.7148466 17.625,47.1445312 C15.5781148,46.5742159 13.6679776,45.7656302 11.8945312,44.71875 C10.1210849,43.6718698 8.50391355,42.4179761 7.04296875,40.9570312 C5.58202395,39.4960864 4.32813023,37.8789151 3.28125,36.1054688 C2.23436977,34.3320224 1.4257841,32.4218852 0.85546875,30.375 C0.285153398,28.3281148 0,26.203136 0,24 C0,21.796864 0.285153398,19.6718852 0.85546875,17.625 C1.4257841,15.5781148 2.23436977,13.6679776 3.28125,11.8945312 C4.32813023,10.1210849 5.58202395,8.50391355 7.04296875,7.04296875 C8.50391355,5.58202395 10.1210849,4.32813023 11.8945312,3.28125 C13.6679776,2.23436977 15.5781148,1.4257841 17.625,0.85546875 C19.6718852,0.285153398 21.796864,0 24,0 Z M24,44.6953125 C25.9062595,44.6953125 27.7382725,44.4492212 29.4960938,43.9570312 C31.253915,43.4648413 32.8984298,42.7695357 34.4296875,41.8710938 C35.9609452,40.9726518 37.3593687,39.8906313 38.625,38.625 C39.8906313,37.3593687 40.9726518,35.9609452 41.8710938,34.4296875 C42.7695357,32.8984298 43.4648413,31.253915 43.9570312,29.4960938 C44.4492212,27.7382725 44.6953125,25.9062595 44.6953125,24 C44.6953125,22.0937405 44.4492212,20.2617275 43.9570312,18.5039062 C43.4648413,16.746085 42.7695357,15.1015702 41.8710938,13.5703125 C40.9726518,12.0390548 39.8906313,10.6406313 38.625,9.375 C37.3593687,8.10936867 35.9609452,7.02734824 34.4296875,6.12890625 C32.8984298,5.23046426 31.253915,4.53515871 29.4960938,4.04296875 C27.7382725,3.55077879 25.9062595,3.3046875 24,3.3046875 C22.0937405,3.3046875 20.2617275,3.55077879 18.5039062,4.04296875 C16.746085,4.53515871 15.1015702,5.23046426 13.5703125,6.12890625 C12.0390548,7.02734824 10.6406313,8.10936867 9.375,9.375 C8.10936867,10.6406313 7.02734824,12.0390548 6.12890625,13.5703125 C5.23046426,15.1015702 4.53515871,16.746085 4.04296875,18.5039062 C3.55077879,20.2617275 3.3046875,22.0937405 3.3046875,24 C3.3046875,25.9062595 3.55077879,27.7382725 4.04296875,29.4960938 C4.53515871,31.253915 5.23046426,32.8984298 6.12890625,34.4296875 C7.02734824,35.9609452 8.10936867,37.3593687 9.375,38.625 C10.6406313,39.8906313 12.0390548,40.9726518 13.5703125,41.8710938 C15.1015702,42.7695357 16.746085,43.4648413 18.5039062,43.9570312 C20.2617275,44.4492212 22.0937405,44.6953125 24,44.6953125 Z" id="" fill="#D8D8D8"></path>
            </g>
        </g>
    </g>
</svg>