<?xml version="1.0" encoding="UTF-8"?>
<svg width="48px" height="36px" viewBox="0 0 48 36" version="1.1" xmlns="http://www.w3.org/2000/svg" xmlns:xlink="http://www.w3.org/1999/xlink">
    <!-- Generator: Sketch 52.5 (67469) - http://www.bohemiancoding.com/sketch -->
    <title>Combined Shape</title>
    <desc>Created with Sketch.</desc>
    <g id="Landing-page" stroke="none" stroke-width="1" fill="none" fill-rule="evenodd">
        <g id="Landing_Page_P3_1280" transform="translate(-1096.000000, -990.000000)" fill="#0078D7">
            <path d="M1099,1023 L1144,1023 L1144,1026 L1096,1026 L1096,990 L1099,990 L1099,1000.33594 L1111.30469,994.171875 L1119.27344,1002.14062 L1128.66517,1004.49367 L1127.90201,1007.39873 L1117.72656,1004.85938 L1110.69531,997.828125 L1099,1003.66406 L1099,1010.625 L1111.1875,1007.92969 L1123.35156,1014 L1127.43188,1014 L1127.43188,1017 L1122.64844,1017 L1110.8125,1011.07031 L1099,1013.69531 L1099,1023 Z M1130,1004.82843 L1132.82843,1002 L1134.94975,1004.12132 L1132.12132,1006.94975 L1130,1004.82843 Z M1129,1014 L1133,1014 L1133,1017 L1129,1017 L1129,1014 Z M1134,1013 L1137.4641,1011 L1138.9641,1013.59808 L1135.5,1015.59808 L1134,1013 Z M1139,1010 L1142.4641,1008 L1143.9641,1010.59808 L1140.5,1012.59808 L1139,1010 Z M1134,1000.82843 L1136.82843,998 L1138.94975,1000.12132 L1136.12132,1002.94975 L1134,1000.82843 Z M1138,996.828427 L1140.82843,994 L1142.94975,996.12132 L1140.12132,998.949747 L1138,996.828427 Z" id="Combined-Shape"></path>
        </g>
    </g>
</svg>