<?xml version="1.0" encoding="UTF-8"?>
<svg width="168px" height="41px" viewBox="0 0 168 41" version="1.1" xmlns="http://www.w3.org/2000/svg" xmlns:xlink="http://www.w3.org/1999/xlink">
    <!-- Generator: Sketch 52.5 (67469) - http://www.bohemiancoding.com/sketch -->
    <title>Logowithtext Copy</title>
    <desc>Created with Sketch.</desc>
    <g id="Landing-page" stroke="none" stroke-width="1" fill="none" fill-rule="evenodd">
        <g id="Landing_Page_P3_1280_B" transform="translate(-46.000000, -19.000000)">
            <g id="Logowithtext-Copy" transform="translate(40.000000, 16.000000)">
                <g id="Text" transform="translate(43.500000, 12.000000)" fill="#0078D7">
                    <path d="M0,29.9668646 L0,6.69500406 L4.56099737,6.69500406 L4.56099737,17.9850013 L13.282364,6.69500406 L17.2270103,6.69500406 L9.32230881,17.1358929 L19.1376984,29.9668646 L13.2053201,29.9668646 L4.56099737,18.5196251 L4.56099737,29.9668646 L0,29.9668646 Z M22.4043587,29.9668646 L22.4043587,6.69500406 L36.6574755,6.69500406 L36.6574755,9.88702278 L27.1502614,9.88702278 L27.1502614,16.3811298 L34.9471014,16.3811298 L34.9471014,19.4945274 L27.1502614,19.4945274 L27.1502614,26.6647763 L37.3816879,26.6647763 L37.3816879,29.9668646 L22.4043587,29.9668646 Z M41.3571518,29.9668646 L41.3571518,6.69500406 L45.5329298,6.69500406 L56.1033494,22.5922007 L56.1033494,6.69500406 L59.9093168,6.69500406 L59.9093168,29.9668646 L55.6564949,29.9668646 L45.1631192,14.069668 L45.1631192,29.9668646 L41.3571518,29.9668646 Z M64.3316352,29.7624497 L64.3316352,25.7684952 C66.7867789,26.8167825 68.8874875,27.3409182 70.6338241,27.3409182 C71.8562597,27.3409182 72.8192985,27.0631263 73.5229694,26.507534 C74.2266403,25.9519418 74.5784705,25.1971863 74.5784705,24.2432449 C74.5784705,23.4884781 74.3576136,22.8516531 73.9158931,22.3327509 C73.4741727,21.8138487 72.636971,21.1979892 71.4042628,20.4851539 L69.8787941,19.6203212 C67.8345531,18.4462395 66.391279,17.3219683 65.5489284,16.2474739 C64.7065778,15.1729794 64.2854088,13.9176743 64.2854088,12.4815207 C64.2854088,10.5631551 64.9762287,9.02219594 66.3578891,7.85859709 C67.7395495,6.69499824 69.565471,6.11320755 71.8357085,6.11320755 C73.6539531,6.11320755 75.7032996,6.38051679 77.9838097,6.91514328 L77.9838097,10.6417858 C75.6519368,9.75074166 73.8080385,9.30522626 72.4520595,9.30522626 C71.4042576,9.30522626 70.5644878,9.54370803 69.9327248,10.0206787 C69.3009619,10.4976494 68.9850852,11.1239917 68.9850852,11.8997242 C68.9850852,12.5391795 69.2059421,13.1000047 69.6476625,13.5822169 C70.0893829,14.064429 70.9214484,14.6567024 72.143884,15.3590549 L73.7772142,16.2867844 C75.9755437,17.5447291 77.4907248,18.7030692 78.3228028,19.7618393 C79.1548808,20.8206094 79.5709135,22.1099834 79.5709135,23.6299999 C79.5709135,25.7894716 78.7850739,27.4824302 77.213371,28.7089262 C75.6416681,29.9354223 73.4741887,30.5486612 70.710868,30.5486612 C68.8823509,30.5486612 66.7559612,30.2865933 64.3316352,29.7624497 Z M83.6388301,29.9668646 L83.6388301,6.69500406 L88.3847328,6.69500406 L88.3847328,16.1452664 L97.814903,16.1452664 L97.814903,6.69500406 L102.560806,6.69500406 L102.560806,29.9668646 L97.814903,29.9668646 L97.814903,19.3530093 L88.3847328,19.3530093 L88.3847328,29.9668646 L83.6388301,29.9668646 Z M118.292902,30.5486612 C114.831047,30.5486612 112.062631,29.4374933 109.987573,27.2151244 C107.912514,24.9927554 106.875,22.0313883 106.875,18.3309344 C106.875,14.5885489 107.91765,11.6166991 110.002981,9.41529587 C112.088313,7.21389265 114.902954,6.11320755 118.44699,6.11320755 C121.970481,6.11320755 124.777418,7.21389265 126.867885,9.41529587 C128.958353,11.6166991 130.003571,14.5728248 130.003571,18.2837617 C130.003571,22.0785615 128.958353,25.0713767 126.867885,27.2622971 C124.777418,29.4532174 121.919119,30.5486612 118.292902,30.5486612 Z M111.75,0 L124.875,0 L124.875,2.6745283 L111.75,2.6745283 L111.75,0 Z M118.323982,27.3409182 C120.357951,27.3409182 121.968152,26.5258871 123.154633,24.8958004 C124.341115,23.2657138 124.934347,21.0564815 124.934347,18.2680374 C124.934347,15.5634563 124.338547,13.3935343 123.146929,11.7582062 C121.955311,10.1228781 120.378496,9.30522626 118.416435,9.30522626 C116.433829,9.30522626 114.84931,10.1228781 113.662828,11.7582062 C112.476346,13.3935343 111.883114,15.5791804 111.883114,18.3152101 C111.883114,21.0302741 112.473778,23.2132996 113.655124,24.864352 C114.836469,26.5154044 116.39274,27.3409182 118.323982,27.3409182 Z" id="KENSHO-Copy-3"></path>
                </g>
                <g id="Group" transform="translate(6.000000, 3.000000)">
                    <polygon id="Path-7-Copy-2" fill="#B3DBF2" points="3.41060513e-13 13.1561318 6.31152458 6.79977518 8.34488896 7.68865259 16.8420213 -8.52651283e-14 20.5579929 3.93887204 21.9761239 3.47012274 31.5880102 13.1561318 22.279816 14.9657287 12.6349678 12.4825701 13.7064034 10.9143869 6.14674754 15.3769909"></polygon>
                    <polygon id="Path-8-Copy-2" fill="#3A96DD" points="0 15.0240075 1.82907999 26.5456096 6.50375596 30.8360462 10.2580944 37.1522698 19.7690091 40.5 25.6309766 30.0685736 29.7615709 24.7306338 31.5880102 15.0240075 22.3019141 16.6434969 11.6576776 14.0510204 6.50375596 16.9655291"></polygon>
                    <polygon id="Path-27" fill="#0078D7" points="6.50001103 30.8385943 1.82430197 26.5453301 0.00707083946 15.0447408 6.5204941 16.947962 11.6587557 14.0611963 13.5168348 18.9899296 12.9056975 25.6217363 16.0255491 30.8057584 17.634468 29.6644198 19.2044917 34.1658871 19.7604428 40.4939856 14.3727894 38.5997006 10.2605713 37.1538554"></polygon>
                    <polygon id="Path-28" fill="#83BEEC" points="16.8437637 0 9.9409678 9.95740914 11.2003957 12.3959572 6.15170407 15.3764465 0 13.1509581 6.3249987 6.79857917 7.28102445 9.95740914 8.34764906 7.68312138"></polygon>
                </g>
            </g>
        </g>
    </g>
</svg>